<mxfile host="app.diagrams.net" agent="Mozilla/5.0 (Windows NT 10.0; Win64; x64) AppleWebKit/537.36 (KHTML, like Gecko) Chrome/131.0.0.0 Safari/537.36" version="24.8.6">
  <diagram id="C5RBs43oDa-KdzZeNtuy" name="Page-1">
    <mxGraphModel dx="2336" dy="813" grid="1" gridSize="10" guides="1" tooltips="1" connect="1" arrows="1" fold="1" page="1" pageScale="1" pageWidth="827" pageHeight="1169" math="0" shadow="0">
      <root>
        <mxCell id="WIyWlLk6GJQsqaUBKTNV-0" />
        <mxCell id="WIyWlLk6GJQsqaUBKTNV-1" parent="WIyWlLk6GJQsqaUBKTNV-0" />
        <mxCell id="zkfFHV4jXpPFQw0GAbJ--0" value="Users" style="swimlane;fontStyle=3;align=center;verticalAlign=top;childLayout=stackLayout;horizontal=1;startSize=26;horizontalStack=0;resizeParent=1;resizeLast=0;collapsible=1;marginBottom=0;rounded=0;shadow=0;strokeWidth=1;labelBackgroundColor=none;fillColor=#B2C9AB;strokeColor=#788AA3;fontColor=#46495D;fontSize=13;" parent="WIyWlLk6GJQsqaUBKTNV-1" vertex="1">
          <mxGeometry x="39" y="40" width="321" height="210" as="geometry">
            <mxRectangle x="230" y="140" width="160" height="26" as="alternateBounds" />
          </mxGeometry>
        </mxCell>
        <mxCell id="zkfFHV4jXpPFQw0GAbJ--1" value="id SERIAL PRIMARY KEY" style="text;align=left;verticalAlign=top;spacingLeft=4;spacingRight=4;overflow=hidden;rotatable=0;points=[[0,0.5],[1,0.5]];portConstraint=eastwest;labelBackgroundColor=none;fontColor=#46495D;rounded=0;" parent="zkfFHV4jXpPFQw0GAbJ--0" vertex="1">
          <mxGeometry y="26" width="321" height="24" as="geometry" />
        </mxCell>
        <mxCell id="YTw8jPQVbYaC02VJ7nYZ-50" value="first_name VARCHAR(50) NOT NULL UNIQUE" style="text;align=left;verticalAlign=top;spacingLeft=4;spacingRight=4;overflow=hidden;rotatable=0;points=[[0,0.5],[1,0.5]];portConstraint=eastwest;rounded=0;shadow=0;html=0;labelBackgroundColor=none;fontColor=#46495D;" vertex="1" parent="zkfFHV4jXpPFQw0GAbJ--0">
          <mxGeometry y="50" width="321" height="22" as="geometry" />
        </mxCell>
        <mxCell id="YTw8jPQVbYaC02VJ7nYZ-7" value="last_name VARCHAR(50) NOT NULL UNIQUE" style="text;align=left;verticalAlign=top;spacingLeft=4;spacingRight=4;overflow=hidden;rotatable=0;points=[[0,0.5],[1,0.5]];portConstraint=eastwest;rounded=0;shadow=0;html=0;labelBackgroundColor=none;fontColor=#46495D;" vertex="1" parent="zkfFHV4jXpPFQw0GAbJ--0">
          <mxGeometry y="72" width="321" height="22" as="geometry" />
        </mxCell>
        <mxCell id="YTw8jPQVbYaC02VJ7nYZ-5" value="email VARCHAR(120) NOT NULL UNIQUE" style="text;align=left;verticalAlign=top;spacingLeft=4;spacingRight=4;overflow=hidden;rotatable=0;points=[[0,0.5],[1,0.5]];portConstraint=eastwest;rounded=0;shadow=0;html=0;labelBackgroundColor=none;fontColor=#46495D;" vertex="1" parent="zkfFHV4jXpPFQw0GAbJ--0">
          <mxGeometry y="94" width="321" height="22" as="geometry" />
        </mxCell>
        <mxCell id="YTw8jPQVbYaC02VJ7nYZ-6" value="password TEXT NOT NULL" style="text;align=left;verticalAlign=top;spacingLeft=4;spacingRight=4;overflow=hidden;rotatable=0;points=[[0,0.5],[1,0.5]];portConstraint=eastwest;rounded=0;shadow=0;html=0;labelBackgroundColor=none;fontColor=#46495D;" vertex="1" parent="zkfFHV4jXpPFQw0GAbJ--0">
          <mxGeometry y="116" width="321" height="22" as="geometry" />
        </mxCell>
        <mxCell id="YTw8jPQVbYaC02VJ7nYZ-51" value="phone VARCHAR(20) NOT NULL UNIQUE" style="text;align=left;verticalAlign=top;spacingLeft=4;spacingRight=4;overflow=hidden;rotatable=0;points=[[0,0.5],[1,0.5]];portConstraint=eastwest;rounded=0;shadow=0;html=0;labelBackgroundColor=none;fontColor=#46495D;" vertex="1" parent="zkfFHV4jXpPFQw0GAbJ--0">
          <mxGeometry y="138" width="321" height="22" as="geometry" />
        </mxCell>
        <mxCell id="YTw8jPQVbYaC02VJ7nYZ-49" value="gender VARCHAR(10) NOT NULL UNIQUE" style="text;align=left;verticalAlign=top;spacingLeft=4;spacingRight=4;overflow=hidden;rotatable=0;points=[[0,0.5],[1,0.5]];portConstraint=eastwest;rounded=0;shadow=0;html=0;labelBackgroundColor=none;fontColor=#46495D;" vertex="1" parent="zkfFHV4jXpPFQw0GAbJ--0">
          <mxGeometry y="160" width="321" height="22" as="geometry" />
        </mxCell>
        <mxCell id="YTw8jPQVbYaC02VJ7nYZ-48" value="country VARCHAR(40) NOT NULL UNIQUE" style="text;align=left;verticalAlign=top;spacingLeft=4;spacingRight=4;overflow=hidden;rotatable=0;points=[[0,0.5],[1,0.5]];portConstraint=eastwest;rounded=0;shadow=0;html=0;labelBackgroundColor=none;fontColor=#46495D;" vertex="1" parent="zkfFHV4jXpPFQw0GAbJ--0">
          <mxGeometry y="182" width="321" height="22" as="geometry" />
        </mxCell>
        <mxCell id="zkfFHV4jXpPFQw0GAbJ--17" value="Accounts" style="swimlane;fontStyle=3;align=center;verticalAlign=top;childLayout=stackLayout;horizontal=1;startSize=26;horizontalStack=0;resizeParent=1;resizeLast=0;collapsible=1;marginBottom=0;rounded=0;shadow=0;strokeWidth=1;labelBackgroundColor=none;fillColor=#B2C9AB;strokeColor=#788AA3;fontColor=#46495D;fontSize=13;" parent="WIyWlLk6GJQsqaUBKTNV-1" vertex="1">
          <mxGeometry x="518" y="40" width="360" height="210" as="geometry">
            <mxRectangle x="510" y="40" width="160" height="26" as="alternateBounds" />
          </mxGeometry>
        </mxCell>
        <mxCell id="zkfFHV4jXpPFQw0GAbJ--18" value="id SERIAL PRIMARY KEY" style="text;align=left;verticalAlign=top;spacingLeft=4;spacingRight=4;overflow=hidden;rotatable=0;points=[[0,0.5],[1,0.5]];portConstraint=eastwest;labelBackgroundColor=none;fontColor=#46495D;rounded=0;" parent="zkfFHV4jXpPFQw0GAbJ--17" vertex="1">
          <mxGeometry y="26" width="360" height="26" as="geometry" />
        </mxCell>
        <mxCell id="YTw8jPQVbYaC02VJ7nYZ-43" value="user_id INT REFERENCES users(id) ON DELETE CASCADE" style="text;align=left;verticalAlign=top;spacingLeft=4;spacingRight=4;overflow=hidden;rotatable=0;points=[[0,0.5],[1,0.5]];portConstraint=eastwest;rounded=0;shadow=0;html=0;labelBackgroundColor=none;fontColor=#46495D;" vertex="1" parent="zkfFHV4jXpPFQw0GAbJ--17">
          <mxGeometry y="52" width="360" height="26" as="geometry" />
        </mxCell>
        <mxCell id="zkfFHV4jXpPFQw0GAbJ--20" value="broker_id INT REFERENCES Brokers(id) ON DELETE SET NULL" style="text;align=left;verticalAlign=top;spacingLeft=4;spacingRight=4;overflow=hidden;rotatable=0;points=[[0,0.5],[1,0.5]];portConstraint=eastwest;rounded=0;shadow=0;html=0;labelBackgroundColor=none;fontColor=#46495D;" parent="zkfFHV4jXpPFQw0GAbJ--17" vertex="1">
          <mxGeometry y="78" width="360" height="26" as="geometry" />
        </mxCell>
        <mxCell id="zkfFHV4jXpPFQw0GAbJ--21" value="account_id VARCHAR(20) NOT NULL" style="text;align=left;verticalAlign=top;spacingLeft=4;spacingRight=4;overflow=hidden;rotatable=0;points=[[0,0.5],[1,0.5]];portConstraint=eastwest;rounded=0;shadow=0;html=0;labelBackgroundColor=none;fontColor=#46495D;" parent="zkfFHV4jXpPFQw0GAbJ--17" vertex="1">
          <mxGeometry y="104" width="360" height="26" as="geometry" />
        </mxCell>
        <mxCell id="zkfFHV4jXpPFQw0GAbJ--22" value="balance NUMERIC(12, 2) DEFAULT 0" style="text;align=left;verticalAlign=top;spacingLeft=4;spacingRight=4;overflow=hidden;rotatable=0;points=[[0,0.5],[1,0.5]];portConstraint=eastwest;rounded=0;shadow=0;html=0;labelBackgroundColor=none;fontColor=#46495D;" parent="zkfFHV4jXpPFQw0GAbJ--17" vertex="1">
          <mxGeometry y="130" width="360" height="26" as="geometry" />
        </mxCell>
        <mxCell id="YTw8jPQVbYaC02VJ7nYZ-56" value="started_at TIMESTAMP DEFAULT NOW()" style="text;align=left;verticalAlign=top;spacingLeft=4;spacingRight=4;overflow=hidden;rotatable=0;points=[[0,0.5],[1,0.5]];portConstraint=eastwest;labelBackgroundColor=none;fontColor=#46495D;rounded=0;" vertex="1" parent="zkfFHV4jXpPFQw0GAbJ--17">
          <mxGeometry y="156" width="360" height="24" as="geometry" />
        </mxCell>
        <mxCell id="zkfFHV4jXpPFQw0GAbJ--24" value="ended_at TIMESTAMP DEFAULT NOW()" style="text;align=left;verticalAlign=top;spacingLeft=4;spacingRight=4;overflow=hidden;rotatable=0;points=[[0,0.5],[1,0.5]];portConstraint=eastwest;labelBackgroundColor=none;fontColor=#46495D;rounded=0;" parent="zkfFHV4jXpPFQw0GAbJ--17" vertex="1">
          <mxGeometry y="180" width="360" height="24" as="geometry" />
        </mxCell>
        <mxCell id="zkfFHV4jXpPFQw0GAbJ--26" value="" style="endArrow=open;shadow=0;strokeWidth=1;rounded=0;curved=0;endFill=1;edgeStyle=elbowEdgeStyle;elbow=horizontal;labelBackgroundColor=none;strokeColor=#788AA3;fontColor=default;" parent="WIyWlLk6GJQsqaUBKTNV-1" source="zkfFHV4jXpPFQw0GAbJ--0" target="zkfFHV4jXpPFQw0GAbJ--17" edge="1">
          <mxGeometry x="0.5" y="41" relative="1" as="geometry">
            <mxPoint x="380" y="192" as="sourcePoint" />
            <mxPoint x="540" y="192" as="targetPoint" />
            <mxPoint x="-40" y="32" as="offset" />
          </mxGeometry>
        </mxCell>
        <mxCell id="YTw8jPQVbYaC02VJ7nYZ-132" value="1" style="edgeLabel;html=1;align=center;verticalAlign=middle;resizable=0;points=[];strokeColor=#788AA3;fontColor=#46495D;fillColor=#B2C9AB;rounded=0;" vertex="1" connectable="0" parent="zkfFHV4jXpPFQw0GAbJ--26">
          <mxGeometry x="-0.7628" y="-1" relative="1" as="geometry">
            <mxPoint x="-9" y="-16" as="offset" />
          </mxGeometry>
        </mxCell>
        <mxCell id="YTw8jPQVbYaC02VJ7nYZ-133" value="0..n" style="edgeLabel;html=1;align=center;verticalAlign=middle;resizable=0;points=[];strokeColor=#788AA3;fontColor=#46495D;fillColor=#B2C9AB;rounded=0;" vertex="1" connectable="0" parent="zkfFHV4jXpPFQw0GAbJ--26">
          <mxGeometry x="0.7295" y="2" relative="1" as="geometry">
            <mxPoint x="3" y="-13" as="offset" />
          </mxGeometry>
        </mxCell>
        <mxCell id="YTw8jPQVbYaC02VJ7nYZ-11" value="&lt;i&gt;&lt;b&gt;&lt;font style=&quot;font-size: 13px;&quot;&gt;Trades&lt;/font&gt;&lt;/b&gt;&lt;/i&gt;" style="swimlane;fontStyle=0;childLayout=stackLayout;horizontal=1;startSize=30;horizontalStack=0;resizeParent=1;resizeParentMax=0;resizeLast=0;collapsible=1;marginBottom=0;whiteSpace=wrap;html=1;verticalAlign=middle;labelBackgroundColor=none;fillColor=#B2C9AB;strokeColor=#788AA3;fontColor=#46495D;rounded=0;" vertex="1" parent="WIyWlLk6GJQsqaUBKTNV-1">
          <mxGeometry x="518" y="400" width="340" height="480" as="geometry" />
        </mxCell>
        <mxCell id="YTw8jPQVbYaC02VJ7nYZ-13" value="account_id &lt;span class=&quot;hljs-type&quot;&gt;INT&lt;/span&gt; &lt;span class=&quot;hljs-keyword&quot;&gt;REFERENCES&lt;/span&gt; accounts(id) &lt;span class=&quot;hljs-keyword&quot;&gt;ON&lt;/span&gt; &lt;span class=&quot;hljs-keyword&quot;&gt;DELETE&lt;/span&gt; CASCADE" style="text;strokeColor=none;fillColor=none;align=left;verticalAlign=middle;spacingLeft=4;spacingRight=4;overflow=hidden;points=[[0,0.5],[1,0.5]];portConstraint=eastwest;rotatable=0;whiteSpace=wrap;html=1;labelBackgroundColor=none;fontColor=#46495D;rounded=0;" vertex="1" parent="YTw8jPQVbYaC02VJ7nYZ-11">
          <mxGeometry y="30" width="340" height="30" as="geometry" />
        </mxCell>
        <mxCell id="YTw8jPQVbYaC02VJ7nYZ-12" value="id SERIAL &lt;span class=&quot;hljs-keyword&quot;&gt;PRIMARY&lt;/span&gt; KEY" style="text;strokeColor=none;fillColor=none;align=left;verticalAlign=middle;spacingLeft=4;spacingRight=4;overflow=hidden;points=[[0,0.5],[1,0.5]];portConstraint=eastwest;rotatable=0;whiteSpace=wrap;html=1;labelBackgroundColor=none;fontColor=#46495D;rounded=0;" vertex="1" parent="YTw8jPQVbYaC02VJ7nYZ-11">
          <mxGeometry y="60" width="340" height="30" as="geometry" />
        </mxCell>
        <mxCell id="YTw8jPQVbYaC02VJ7nYZ-14" value="open_date &lt;span class=&quot;hljs-type&quot;&gt;TIMESTAMP&lt;/span&gt; &lt;span class=&quot;hljs-keyword&quot;&gt;NOT&lt;/span&gt; &lt;span class=&quot;hljs-keyword&quot;&gt;NULL&lt;/span&gt;" style="text;strokeColor=none;fillColor=none;align=left;verticalAlign=middle;spacingLeft=4;spacingRight=4;overflow=hidden;points=[[0,0.5],[1,0.5]];portConstraint=eastwest;rotatable=0;whiteSpace=wrap;html=1;labelBackgroundColor=none;fontColor=#46495D;rounded=0;" vertex="1" parent="YTw8jPQVbYaC02VJ7nYZ-11">
          <mxGeometry y="90" width="340" height="30" as="geometry" />
        </mxCell>
        <mxCell id="YTw8jPQVbYaC02VJ7nYZ-16" value="type &lt;span class=&quot;hljs-type&quot;&gt;VARCHAR&lt;/span&gt;(&lt;span class=&quot;hljs-number&quot;&gt;10&lt;/span&gt;) &lt;span class=&quot;hljs-keyword&quot;&gt;NOT&lt;/span&gt; &lt;span class=&quot;hljs-keyword&quot;&gt;NULL&lt;/span&gt;" style="text;strokeColor=none;fillColor=none;align=left;verticalAlign=middle;spacingLeft=4;spacingRight=4;overflow=hidden;points=[[0,0.5],[1,0.5]];portConstraint=eastwest;rotatable=0;whiteSpace=wrap;html=1;horizontal=1;labelBackgroundColor=none;fontColor=#46495D;rounded=0;" vertex="1" parent="YTw8jPQVbYaC02VJ7nYZ-11">
          <mxGeometry y="120" width="340" height="30" as="geometry" />
        </mxCell>
        <mxCell id="YTw8jPQVbYaC02VJ7nYZ-15" value="symbol &lt;span class=&quot;hljs-type&quot;&gt;VARCHAR&lt;/span&gt;(&lt;span class=&quot;hljs-number&quot;&gt;20&lt;/span&gt;) &lt;span class=&quot;hljs-keyword&quot;&gt;NOT&lt;/span&gt; &lt;span class=&quot;hljs-keyword&quot;&gt;NULL&lt;/span&gt;" style="text;strokeColor=none;fillColor=none;align=left;verticalAlign=middle;spacingLeft=4;spacingRight=4;overflow=hidden;points=[[0,0.5],[1,0.5]];portConstraint=eastwest;rotatable=0;whiteSpace=wrap;html=1;horizontal=1;labelBackgroundColor=none;fontColor=#46495D;rounded=0;" vertex="1" parent="YTw8jPQVbYaC02VJ7nYZ-11">
          <mxGeometry y="150" width="340" height="30" as="geometry" />
        </mxCell>
        <mxCell id="YTw8jPQVbYaC02VJ7nYZ-17" value="volume &lt;span class=&quot;hljs-type&quot;&gt;NUMERIC&lt;/span&gt;(&lt;span class=&quot;hljs-number&quot;&gt;10&lt;/span&gt;, &lt;span class=&quot;hljs-number&quot;&gt;2&lt;/span&gt;) &lt;span class=&quot;hljs-keyword&quot;&gt;NOT&lt;/span&gt; &lt;span class=&quot;hljs-keyword&quot;&gt;NULL&lt;/span&gt;" style="text;strokeColor=none;fillColor=none;align=left;verticalAlign=middle;spacingLeft=4;spacingRight=4;overflow=hidden;points=[[0,0.5],[1,0.5]];portConstraint=eastwest;rotatable=0;whiteSpace=wrap;html=1;horizontal=1;labelBackgroundColor=none;fontColor=#46495D;rounded=0;" vertex="1" parent="YTw8jPQVbYaC02VJ7nYZ-11">
          <mxGeometry y="180" width="340" height="30" as="geometry" />
        </mxCell>
        <mxCell id="YTw8jPQVbYaC02VJ7nYZ-60" value="&lt;span class=&quot;hljs-type&quot;&gt;open_price NUMERIC&lt;/span&gt;(&lt;span class=&quot;hljs-number&quot;&gt;14&lt;/span&gt;, 5) &lt;span class=&quot;hljs-keyword&quot;&gt;NOT&lt;/span&gt; &lt;span class=&quot;hljs-keyword&quot;&gt;NULL&lt;/span&gt;" style="text;strokeColor=none;fillColor=none;align=left;verticalAlign=middle;spacingLeft=4;spacingRight=4;overflow=hidden;points=[[0,0.5],[1,0.5]];portConstraint=eastwest;rotatable=0;whiteSpace=wrap;html=1;horizontal=1;labelBackgroundColor=none;fontColor=#46495D;rounded=0;" vertex="1" parent="YTw8jPQVbYaC02VJ7nYZ-11">
          <mxGeometry y="210" width="340" height="30" as="geometry" />
        </mxCell>
        <mxCell id="YTw8jPQVbYaC02VJ7nYZ-61" value="&lt;span class=&quot;hljs-type&quot;&gt;sl_price NUMERIC&lt;/span&gt;(&lt;span class=&quot;hljs-number&quot;&gt;14&lt;/span&gt;, 5)" style="text;strokeColor=none;fillColor=none;align=left;verticalAlign=middle;spacingLeft=4;spacingRight=4;overflow=hidden;points=[[0,0.5],[1,0.5]];portConstraint=eastwest;rotatable=0;whiteSpace=wrap;html=1;horizontal=1;labelBackgroundColor=none;fontColor=#46495D;rounded=0;" vertex="1" parent="YTw8jPQVbYaC02VJ7nYZ-11">
          <mxGeometry y="240" width="340" height="30" as="geometry" />
        </mxCell>
        <mxCell id="YTw8jPQVbYaC02VJ7nYZ-62" value="&lt;span class=&quot;hljs-type&quot;&gt;tp_price NUMERIC&lt;/span&gt;(&lt;span class=&quot;hljs-number&quot;&gt;14&lt;/span&gt;, 5)" style="text;strokeColor=none;fillColor=none;align=left;verticalAlign=middle;spacingLeft=4;spacingRight=4;overflow=hidden;points=[[0,0.5],[1,0.5]];portConstraint=eastwest;rotatable=0;whiteSpace=wrap;html=1;horizontal=1;labelBackgroundColor=none;fontColor=#46495D;rounded=0;" vertex="1" parent="YTw8jPQVbYaC02VJ7nYZ-11">
          <mxGeometry y="270" width="340" height="30" as="geometry" />
        </mxCell>
        <mxCell id="YTw8jPQVbYaC02VJ7nYZ-63" value="&lt;span class=&quot;hljs-type&quot;&gt;close_price NUMERIC&lt;/span&gt;(&lt;span class=&quot;hljs-number&quot;&gt;14&lt;/span&gt;, 5)&amp;nbsp;&lt;span class=&quot;hljs-keyword&quot;&gt;NOT&lt;/span&gt;&amp;nbsp;&lt;span class=&quot;hljs-keyword&quot;&gt;NULL&lt;/span&gt;" style="text;strokeColor=none;fillColor=none;align=left;verticalAlign=middle;spacingLeft=4;spacingRight=4;overflow=hidden;points=[[0,0.5],[1,0.5]];portConstraint=eastwest;rotatable=0;whiteSpace=wrap;html=1;horizontal=1;labelBackgroundColor=none;fontColor=#46495D;rounded=0;" vertex="1" parent="YTw8jPQVbYaC02VJ7nYZ-11">
          <mxGeometry y="300" width="340" height="30" as="geometry" />
        </mxCell>
        <mxCell id="YTw8jPQVbYaC02VJ7nYZ-59" value="close_date &lt;span class=&quot;hljs-type&quot;&gt;TIMESTAMP&lt;/span&gt; &lt;span class=&quot;hljs-keyword&quot;&gt;NOT&lt;/span&gt; &lt;span class=&quot;hljs-keyword&quot;&gt;NULL&lt;/span&gt;" style="text;strokeColor=none;fillColor=none;align=left;verticalAlign=middle;spacingLeft=4;spacingRight=4;overflow=hidden;points=[[0,0.5],[1,0.5]];portConstraint=eastwest;rotatable=0;whiteSpace=wrap;html=1;labelBackgroundColor=none;fontColor=#46495D;rounded=0;" vertex="1" parent="YTw8jPQVbYaC02VJ7nYZ-11">
          <mxGeometry y="330" width="340" height="30" as="geometry" />
        </mxCell>
        <mxCell id="YTw8jPQVbYaC02VJ7nYZ-65" value="swap&amp;nbsp;&lt;span class=&quot;hljs-type&quot;&gt;NUMERIC&lt;/span&gt;(&lt;span class=&quot;hljs-number&quot;&gt;12&lt;/span&gt;, &lt;span class=&quot;hljs-number&quot;&gt;2)&lt;/span&gt;" style="text;strokeColor=none;fillColor=none;align=left;verticalAlign=middle;spacingLeft=4;spacingRight=4;overflow=hidden;points=[[0,0.5],[1,0.5]];portConstraint=eastwest;rotatable=0;whiteSpace=wrap;html=1;horizontal=1;labelBackgroundColor=none;fontColor=#46495D;rounded=0;" vertex="1" parent="YTw8jPQVbYaC02VJ7nYZ-11">
          <mxGeometry y="360" width="340" height="30" as="geometry" />
        </mxCell>
        <mxCell id="YTw8jPQVbYaC02VJ7nYZ-64" value="commision&amp;nbsp;&lt;span class=&quot;hljs-type&quot;&gt;NUMERIC&lt;/span&gt;(&lt;span class=&quot;hljs-number&quot;&gt;12&lt;/span&gt;, &lt;span class=&quot;hljs-number&quot;&gt;2)&lt;/span&gt;" style="text;strokeColor=none;fillColor=none;align=left;verticalAlign=middle;spacingLeft=4;spacingRight=4;overflow=hidden;points=[[0,0.5],[1,0.5]];portConstraint=eastwest;rotatable=0;whiteSpace=wrap;html=1;horizontal=1;labelBackgroundColor=none;fontColor=#46495D;rounded=0;" vertex="1" parent="YTw8jPQVbYaC02VJ7nYZ-11">
          <mxGeometry y="390" width="340" height="30" as="geometry" />
        </mxCell>
        <mxCell id="YTw8jPQVbYaC02VJ7nYZ-19" value="profit &lt;span class=&quot;hljs-type&quot;&gt;NUMERIC&lt;/span&gt;(&lt;span class=&quot;hljs-number&quot;&gt;12&lt;/span&gt;, &lt;span class=&quot;hljs-number&quot;&gt;2)&lt;/span&gt;" style="text;strokeColor=none;fillColor=none;align=left;verticalAlign=middle;spacingLeft=4;spacingRight=4;overflow=hidden;points=[[0,0.5],[1,0.5]];portConstraint=eastwest;rotatable=0;whiteSpace=wrap;html=1;horizontal=1;labelBackgroundColor=none;fontColor=#46495D;rounded=0;" vertex="1" parent="YTw8jPQVbYaC02VJ7nYZ-11">
          <mxGeometry y="420" width="340" height="30" as="geometry" />
        </mxCell>
        <mxCell id="YTw8jPQVbYaC02VJ7nYZ-66" value="pips&amp;nbsp;&lt;span class=&quot;hljs-type&quot;&gt;NUMERIC&lt;/span&gt;(&lt;span class=&quot;hljs-number&quot;&gt;12&lt;/span&gt;, 2&lt;span class=&quot;hljs-number&quot;&gt;)&lt;/span&gt;" style="text;strokeColor=none;fillColor=none;align=left;verticalAlign=middle;spacingLeft=4;spacingRight=4;overflow=hidden;points=[[0,0.5],[1,0.5]];portConstraint=eastwest;rotatable=0;whiteSpace=wrap;html=1;horizontal=1;labelBackgroundColor=none;fontColor=#46495D;rounded=0;" vertex="1" parent="YTw8jPQVbYaC02VJ7nYZ-11">
          <mxGeometry y="450" width="340" height="30" as="geometry" />
        </mxCell>
        <mxCell id="YTw8jPQVbYaC02VJ7nYZ-20" value="" style="endArrow=classic;html=1;rounded=0;labelBackgroundColor=none;strokeColor=#788AA3;fontColor=default;" edge="1" parent="WIyWlLk6GJQsqaUBKTNV-1">
          <mxGeometry width="50" height="50" relative="1" as="geometry">
            <mxPoint x="680" y="250" as="sourcePoint" />
            <mxPoint x="680" y="400" as="targetPoint" />
            <Array as="points" />
          </mxGeometry>
        </mxCell>
        <mxCell id="YTw8jPQVbYaC02VJ7nYZ-144" value="1" style="edgeLabel;html=1;align=center;verticalAlign=middle;resizable=0;points=[];strokeColor=#788AA3;fontColor=#46495D;fillColor=#B2C9AB;rounded=0;" vertex="1" connectable="0" parent="YTw8jPQVbYaC02VJ7nYZ-20">
          <mxGeometry x="-0.7593" y="-1" relative="1" as="geometry">
            <mxPoint x="21" as="offset" />
          </mxGeometry>
        </mxCell>
        <mxCell id="YTw8jPQVbYaC02VJ7nYZ-145" value="0..n" style="edgeLabel;html=1;align=center;verticalAlign=middle;resizable=0;points=[];strokeColor=#788AA3;fontColor=#46495D;fillColor=#B2C9AB;rounded=0;" vertex="1" connectable="0" parent="YTw8jPQVbYaC02VJ7nYZ-20">
          <mxGeometry x="0.4898" y="1" relative="1" as="geometry">
            <mxPoint x="19" y="8" as="offset" />
          </mxGeometry>
        </mxCell>
        <mxCell id="YTw8jPQVbYaC02VJ7nYZ-24" value="&lt;i&gt;&lt;b&gt;&lt;font style=&quot;font-size: 13px;&quot;&gt;Backtests&lt;/font&gt;&lt;/b&gt;&lt;/i&gt;" style="swimlane;fontStyle=0;childLayout=stackLayout;horizontal=1;startSize=30;horizontalStack=0;resizeParent=1;resizeParentMax=0;resizeLast=0;collapsible=1;marginBottom=0;whiteSpace=wrap;html=1;labelBackgroundColor=none;fillColor=#B2C9AB;strokeColor=#788AA3;fontColor=#46495D;rounded=0;" vertex="1" parent="WIyWlLk6GJQsqaUBKTNV-1">
          <mxGeometry x="40" y="400" width="320" height="220" as="geometry" />
        </mxCell>
        <mxCell id="YTw8jPQVbYaC02VJ7nYZ-26" value="user_id &lt;span class=&quot;hljs-type&quot;&gt;INT&lt;/span&gt; &lt;span class=&quot;hljs-keyword&quot;&gt;REFERENCES&lt;/span&gt; users(id) &lt;span class=&quot;hljs-keyword&quot;&gt;ON&lt;/span&gt; &lt;span class=&quot;hljs-keyword&quot;&gt;DELETE&lt;/span&gt; CASCADE" style="text;strokeColor=none;fillColor=none;align=left;verticalAlign=middle;spacingLeft=4;spacingRight=4;overflow=hidden;points=[[0,0.5],[1,0.5]];portConstraint=eastwest;rotatable=0;whiteSpace=wrap;html=1;labelBackgroundColor=none;fontColor=#46495D;rounded=0;" vertex="1" parent="YTw8jPQVbYaC02VJ7nYZ-24">
          <mxGeometry y="30" width="320" height="30" as="geometry" />
        </mxCell>
        <mxCell id="YTw8jPQVbYaC02VJ7nYZ-25" value="id SERIAL &lt;span class=&quot;hljs-keyword&quot;&gt;PRIMARY&lt;/span&gt; KEY" style="text;strokeColor=none;fillColor=none;align=left;verticalAlign=middle;spacingLeft=4;spacingRight=4;overflow=hidden;points=[[0,0.5],[1,0.5]];portConstraint=eastwest;rotatable=0;whiteSpace=wrap;html=1;labelBackgroundColor=none;fontColor=#46495D;rounded=0;" vertex="1" parent="YTw8jPQVbYaC02VJ7nYZ-24">
          <mxGeometry y="60" width="320" height="30" as="geometry" />
        </mxCell>
        <mxCell id="YTw8jPQVbYaC02VJ7nYZ-27" value="strategy_id &lt;span class=&quot;hljs-type&quot;&gt;INT&lt;/span&gt; &lt;span class=&quot;hljs-keyword&quot;&gt;REFERENCES&lt;/span&gt; Strategies(id) &lt;span class=&quot;hljs-keyword&quot;&gt;ON&lt;/span&gt; &lt;span class=&quot;hljs-keyword&quot;&gt;DELETE&lt;/span&gt; &lt;span class=&quot;hljs-keyword&quot;&gt;SET&lt;/span&gt; &lt;span class=&quot;hljs-keyword&quot;&gt;NULL&lt;/span&gt;" style="text;strokeColor=none;fillColor=none;align=left;verticalAlign=middle;spacingLeft=4;spacingRight=4;overflow=hidden;points=[[0,0.5],[1,0.5]];portConstraint=eastwest;rotatable=0;whiteSpace=wrap;html=1;labelBackgroundColor=none;fontColor=#46495D;rounded=0;" vertex="1" parent="YTw8jPQVbYaC02VJ7nYZ-24">
          <mxGeometry y="90" width="320" height="30" as="geometry" />
        </mxCell>
        <mxCell id="YTw8jPQVbYaC02VJ7nYZ-31" value="time_frame &lt;span class=&quot;hljs-type&quot;&gt;VARCHAR&lt;/span&gt;(&lt;span class=&quot;hljs-number&quot;&gt;20&lt;/span&gt;) &lt;span class=&quot;hljs-keyword&quot;&gt;NOT&lt;/span&gt; &lt;span class=&quot;hljs-keyword&quot;&gt;NULL&lt;/span&gt;" style="text;strokeColor=none;fillColor=none;align=left;verticalAlign=middle;spacingLeft=4;spacingRight=4;overflow=hidden;points=[[0,0.5],[1,0.5]];portConstraint=eastwest;rotatable=0;whiteSpace=wrap;html=1;labelBackgroundColor=none;fontColor=#46495D;rounded=0;" vertex="1" parent="YTw8jPQVbYaC02VJ7nYZ-24">
          <mxGeometry y="120" width="320" height="30" as="geometry" />
        </mxCell>
        <mxCell id="YTw8jPQVbYaC02VJ7nYZ-30" value="start_date &lt;span class=&quot;hljs-type&quot;&gt;TIMESTAMP&lt;/span&gt;" style="text;strokeColor=none;fillColor=none;align=left;verticalAlign=middle;spacingLeft=4;spacingRight=4;overflow=hidden;points=[[0,0.5],[1,0.5]];portConstraint=eastwest;rotatable=0;whiteSpace=wrap;html=1;labelBackgroundColor=none;fontColor=#46495D;rounded=0;" vertex="1" parent="YTw8jPQVbYaC02VJ7nYZ-24">
          <mxGeometry y="150" width="320" height="30" as="geometry" />
        </mxCell>
        <mxCell id="YTw8jPQVbYaC02VJ7nYZ-29" value="end_date &lt;span class=&quot;hljs-type&quot;&gt;TIMESTAMP&lt;/span&gt;" style="text;strokeColor=none;fillColor=none;align=left;verticalAlign=bottom;spacingLeft=4;spacingRight=4;overflow=hidden;points=[[0,0.5],[1,0.5]];portConstraint=eastwest;rotatable=0;whiteSpace=wrap;html=1;labelBackgroundColor=none;fontColor=#46495D;rounded=0;" vertex="1" parent="YTw8jPQVbYaC02VJ7nYZ-24">
          <mxGeometry y="180" width="320" height="20" as="geometry" />
        </mxCell>
        <mxCell id="YTw8jPQVbYaC02VJ7nYZ-28" value="created_at &lt;span class=&quot;hljs-type&quot;&gt;TIMESTAMP&lt;/span&gt; &lt;span class=&quot;hljs-keyword&quot;&gt;DEFAULT&lt;/span&gt; NOW()" style="text;strokeColor=none;fillColor=none;align=left;verticalAlign=bottom;spacingLeft=4;spacingRight=4;overflow=hidden;points=[[0,0.5],[1,0.5]];portConstraint=eastwest;rotatable=0;whiteSpace=wrap;html=1;horizontal=1;labelBackgroundColor=none;fontColor=#46495D;rounded=0;" vertex="1" parent="YTw8jPQVbYaC02VJ7nYZ-24">
          <mxGeometry y="200" width="320" height="20" as="geometry" />
        </mxCell>
        <mxCell id="YTw8jPQVbYaC02VJ7nYZ-37" value="&lt;i&gt;&lt;b&gt;&lt;font style=&quot;font-size: 13px;&quot;&gt;Documents &lt;/font&gt;&lt;/b&gt;&lt;/i&gt;" style="swimlane;fontStyle=0;childLayout=stackLayout;horizontal=1;startSize=30;horizontalStack=0;resizeParent=1;resizeParentMax=0;resizeLast=0;collapsible=1;marginBottom=0;whiteSpace=wrap;html=1;labelBackgroundColor=none;fillColor=#B2C9AB;strokeColor=#788AA3;fontColor=#46495D;rounded=0;" vertex="1" parent="WIyWlLk6GJQsqaUBKTNV-1">
          <mxGeometry x="1038" y="570" width="390" height="180" as="geometry" />
        </mxCell>
        <mxCell id="YTw8jPQVbYaC02VJ7nYZ-38" value="id SERIAL &lt;span class=&quot;hljs-keyword&quot;&gt;PRIMARY&lt;/span&gt; KEY" style="text;strokeColor=none;fillColor=none;align=left;verticalAlign=middle;spacingLeft=4;spacingRight=4;overflow=hidden;points=[[0,0.5],[1,0.5]];portConstraint=eastwest;rotatable=0;whiteSpace=wrap;html=1;labelBackgroundColor=none;fontColor=#46495D;rounded=0;" vertex="1" parent="YTw8jPQVbYaC02VJ7nYZ-37">
          <mxGeometry y="30" width="390" height="30" as="geometry" />
        </mxCell>
        <mxCell id="YTw8jPQVbYaC02VJ7nYZ-39" value="trade_id &lt;span class=&quot;hljs-type&quot;&gt;INT&lt;/span&gt; &lt;span class=&quot;hljs-keyword&quot;&gt;REFERENCES&lt;/span&gt; trades(id) &lt;span class=&quot;hljs-keyword&quot;&gt;ON&lt;/span&gt; &lt;span class=&quot;hljs-keyword&quot;&gt;DELETE&lt;/span&gt; CASCADE" style="text;strokeColor=none;fillColor=none;align=left;verticalAlign=middle;spacingLeft=4;spacingRight=4;overflow=hidden;points=[[0,0.5],[1,0.5]];portConstraint=eastwest;rotatable=0;whiteSpace=wrap;html=1;labelBackgroundColor=none;fontColor=#46495D;rounded=0;" vertex="1" parent="YTw8jPQVbYaC02VJ7nYZ-37">
          <mxGeometry y="60" width="390" height="30" as="geometry" />
        </mxCell>
        <mxCell id="YTw8jPQVbYaC02VJ7nYZ-41" value="file_path TEXT &lt;span class=&quot;hljs-keyword&quot;&gt;NOT&lt;/span&gt; &lt;span class=&quot;hljs-keyword&quot;&gt;NULL&lt;/span&gt;" style="text;strokeColor=none;fillColor=none;align=left;verticalAlign=middle;spacingLeft=4;spacingRight=4;overflow=hidden;points=[[0,0.5],[1,0.5]];portConstraint=eastwest;rotatable=0;whiteSpace=wrap;html=1;labelBackgroundColor=none;fontColor=#46495D;rounded=0;" vertex="1" parent="YTw8jPQVbYaC02VJ7nYZ-37">
          <mxGeometry y="90" width="390" height="30" as="geometry" />
        </mxCell>
        <mxCell id="YTw8jPQVbYaC02VJ7nYZ-42" value="file_type &lt;span class=&quot;hljs-type&quot;&gt;VARCHAR&lt;/span&gt;(&lt;span class=&quot;hljs-number&quot;&gt;10&lt;/span&gt;) &lt;span class=&quot;hljs-keyword&quot;&gt;NOT&lt;/span&gt; &lt;span class=&quot;hljs-keyword&quot;&gt;NULL&lt;/span&gt;" style="text;strokeColor=none;fillColor=none;align=left;verticalAlign=middle;spacingLeft=4;spacingRight=4;overflow=hidden;points=[[0,0.5],[1,0.5]];portConstraint=eastwest;rotatable=0;whiteSpace=wrap;html=1;labelBackgroundColor=none;fontColor=#46495D;rounded=0;" vertex="1" parent="YTw8jPQVbYaC02VJ7nYZ-37">
          <mxGeometry y="120" width="390" height="30" as="geometry" />
        </mxCell>
        <mxCell id="YTw8jPQVbYaC02VJ7nYZ-40" value="uploaded_at &lt;span class=&quot;hljs-type&quot;&gt;TIMESTAMP&lt;/span&gt; &lt;span class=&quot;hljs-keyword&quot;&gt;DEFAULT&lt;/span&gt; NOW()" style="text;strokeColor=none;fillColor=none;align=left;verticalAlign=middle;spacingLeft=4;spacingRight=4;overflow=hidden;points=[[0,0.5],[1,0.5]];portConstraint=eastwest;rotatable=0;whiteSpace=wrap;html=1;labelBackgroundColor=none;fontColor=#46495D;rounded=0;" vertex="1" parent="YTw8jPQVbYaC02VJ7nYZ-37">
          <mxGeometry y="150" width="390" height="30" as="geometry" />
        </mxCell>
        <mxCell id="YTw8jPQVbYaC02VJ7nYZ-44" value="" style="endArrow=open;shadow=0;strokeWidth=1;rounded=0;curved=0;endFill=1;edgeStyle=elbowEdgeStyle;elbow=vertical;entryX=0;entryY=0.5;entryDx=0;entryDy=0;labelBackgroundColor=none;strokeColor=#788AA3;fontColor=default;exitX=1;exitY=0.5;exitDx=0;exitDy=0;" edge="1" parent="WIyWlLk6GJQsqaUBKTNV-1" source="YTw8jPQVbYaC02VJ7nYZ-62" target="YTw8jPQVbYaC02VJ7nYZ-39">
          <mxGeometry x="0.5" y="41" relative="1" as="geometry">
            <mxPoint x="850" y="584" as="sourcePoint" />
            <mxPoint x="1000" y="584" as="targetPoint" />
            <mxPoint x="-40" y="32" as="offset" />
            <Array as="points">
              <mxPoint x="1000" y="645" />
            </Array>
          </mxGeometry>
        </mxCell>
        <mxCell id="YTw8jPQVbYaC02VJ7nYZ-150" value="1" style="edgeLabel;html=1;align=center;verticalAlign=middle;resizable=0;points=[];strokeColor=#788AA3;fontColor=#46495D;fillColor=#B2C9AB;rounded=0;" vertex="1" connectable="0" parent="YTw8jPQVbYaC02VJ7nYZ-44">
          <mxGeometry x="-0.3043" y="-1" relative="1" as="geometry">
            <mxPoint x="-17" y="-16" as="offset" />
          </mxGeometry>
        </mxCell>
        <mxCell id="YTw8jPQVbYaC02VJ7nYZ-151" value="0..n" style="edgeLabel;html=1;align=center;verticalAlign=middle;resizable=0;points=[];strokeColor=#788AA3;fontColor=#46495D;fillColor=#B2C9AB;rounded=0;" vertex="1" connectable="0" parent="YTw8jPQVbYaC02VJ7nYZ-44">
          <mxGeometry x="0.7579" y="2" relative="1" as="geometry">
            <mxPoint y="-13" as="offset" />
          </mxGeometry>
        </mxCell>
        <mxCell id="YTw8jPQVbYaC02VJ7nYZ-53" value="" style="endArrow=classic;html=1;rounded=0;entryX=0.5;entryY=0;entryDx=0;entryDy=0;exitX=0.5;exitY=1;exitDx=0;exitDy=0;labelBackgroundColor=none;strokeColor=#788AA3;fontColor=default;" edge="1" parent="WIyWlLk6GJQsqaUBKTNV-1" source="zkfFHV4jXpPFQw0GAbJ--0" target="YTw8jPQVbYaC02VJ7nYZ-24">
          <mxGeometry width="50" height="50" relative="1" as="geometry">
            <mxPoint x="179" y="272" as="sourcePoint" />
            <mxPoint x="185" y="390" as="targetPoint" />
          </mxGeometry>
        </mxCell>
        <mxCell id="YTw8jPQVbYaC02VJ7nYZ-137" value="1" style="edgeLabel;html=1;align=center;verticalAlign=middle;resizable=0;points=[];strokeColor=#788AA3;fontColor=#46495D;fillColor=#B2C9AB;rounded=0;" vertex="1" connectable="0" parent="YTw8jPQVbYaC02VJ7nYZ-53">
          <mxGeometry x="-0.6892" y="-1" relative="1" as="geometry">
            <mxPoint x="-19" y="-3" as="offset" />
          </mxGeometry>
        </mxCell>
        <mxCell id="YTw8jPQVbYaC02VJ7nYZ-138" value="has" style="edgeLabel;html=1;align=center;verticalAlign=middle;resizable=0;points=[];strokeColor=#788AA3;fontColor=#46495D;fillColor=#B2C9AB;rounded=0;" vertex="1" connectable="0" parent="YTw8jPQVbYaC02VJ7nYZ-53">
          <mxGeometry x="-0.1417" y="1" relative="1" as="geometry">
            <mxPoint x="-21" as="offset" />
          </mxGeometry>
        </mxCell>
        <mxCell id="YTw8jPQVbYaC02VJ7nYZ-139" value="1..n" style="edgeLabel;html=1;align=center;verticalAlign=middle;resizable=0;points=[];strokeColor=#788AA3;fontColor=#46495D;fillColor=#B2C9AB;rounded=0;" vertex="1" connectable="0" parent="YTw8jPQVbYaC02VJ7nYZ-53">
          <mxGeometry x="0.7003" relative="1" as="geometry">
            <mxPoint x="-20" as="offset" />
          </mxGeometry>
        </mxCell>
        <mxCell id="YTw8jPQVbYaC02VJ7nYZ-68" value="&lt;b&gt;&lt;i&gt;&lt;font style=&quot;font-size: 13px;&quot;&gt;Brokers&lt;/font&gt;&lt;/i&gt;&lt;/b&gt;" style="swimlane;fontStyle=0;childLayout=stackLayout;horizontal=1;startSize=30;horizontalStack=0;resizeParent=1;resizeParentMax=0;resizeLast=0;collapsible=1;marginBottom=0;whiteSpace=wrap;html=1;strokeColor=#788AA3;fontColor=#46495D;fillColor=#B2C9AB;rounded=0;" vertex="1" parent="WIyWlLk6GJQsqaUBKTNV-1">
          <mxGeometry x="1038" y="40" width="260" height="90" as="geometry" />
        </mxCell>
        <mxCell id="YTw8jPQVbYaC02VJ7nYZ-69" value="id SERIAL &lt;span class=&quot;hljs-keyword&quot;&gt;PRIMARY&lt;/span&gt; KEY" style="text;strokeColor=none;fillColor=none;align=left;verticalAlign=middle;spacingLeft=4;spacingRight=4;overflow=hidden;points=[[0,0.5],[1,0.5]];portConstraint=eastwest;rotatable=0;whiteSpace=wrap;html=1;fontColor=#46495D;rounded=0;" vertex="1" parent="YTw8jPQVbYaC02VJ7nYZ-68">
          <mxGeometry y="30" width="260" height="30" as="geometry" />
        </mxCell>
        <mxCell id="YTw8jPQVbYaC02VJ7nYZ-70" value="name &lt;span class=&quot;hljs-type&quot;&gt;VARCHAR&lt;/span&gt;(&lt;span class=&quot;hljs-number&quot;&gt;100&lt;/span&gt;) &lt;span class=&quot;hljs-keyword&quot;&gt;NOT&lt;/span&gt; &lt;span class=&quot;hljs-keyword&quot;&gt;NULL&lt;/span&gt; &lt;span class=&quot;hljs-keyword&quot;&gt;UNIQUE&lt;/span&gt;" style="text;strokeColor=none;fillColor=none;align=left;verticalAlign=middle;spacingLeft=4;spacingRight=4;overflow=hidden;points=[[0,0.5],[1,0.5]];portConstraint=eastwest;rotatable=0;whiteSpace=wrap;html=1;fontColor=#46495D;rounded=0;" vertex="1" parent="YTw8jPQVbYaC02VJ7nYZ-68">
          <mxGeometry y="60" width="260" height="30" as="geometry" />
        </mxCell>
        <mxCell id="YTw8jPQVbYaC02VJ7nYZ-72" value="&lt;b&gt;&lt;i&gt;&lt;font style=&quot;font-size: 13px;&quot;&gt;BrokerServers&lt;/font&gt;&lt;/i&gt;&lt;/b&gt;" style="swimlane;fontStyle=0;childLayout=stackLayout;horizontal=1;startSize=30;horizontalStack=0;resizeParent=1;resizeParentMax=0;resizeLast=0;collapsible=1;marginBottom=0;whiteSpace=wrap;html=1;strokeColor=#788AA3;fontColor=#46495D;fillColor=#B2C9AB;rounded=0;" vertex="1" parent="WIyWlLk6GJQsqaUBKTNV-1">
          <mxGeometry x="1038" y="260" width="270" height="120" as="geometry" />
        </mxCell>
        <mxCell id="YTw8jPQVbYaC02VJ7nYZ-73" value="id SERIAL &lt;span class=&quot;hljs-keyword&quot;&gt;PRIMARY&lt;/span&gt; KEY" style="text;strokeColor=none;fillColor=none;align=left;verticalAlign=middle;spacingLeft=4;spacingRight=4;overflow=hidden;points=[[0,0.5],[1,0.5]];portConstraint=eastwest;rotatable=0;whiteSpace=wrap;html=1;fontColor=#46495D;rounded=0;" vertex="1" parent="YTw8jPQVbYaC02VJ7nYZ-72">
          <mxGeometry y="30" width="270" height="30" as="geometry" />
        </mxCell>
        <mxCell id="YTw8jPQVbYaC02VJ7nYZ-74" value="broker_id &lt;span class=&quot;hljs-type&quot;&gt;INT&lt;/span&gt; &lt;span class=&quot;hljs-keyword&quot;&gt;REFERENCES&lt;/span&gt; Brokers(id) &lt;span class=&quot;hljs-keyword&quot;&gt;ON&lt;/span&gt; &lt;span class=&quot;hljs-keyword&quot;&gt;DELETE&lt;/span&gt; CASCADE" style="text;strokeColor=none;fillColor=none;align=left;verticalAlign=middle;spacingLeft=4;spacingRight=4;overflow=hidden;points=[[0,0.5],[1,0.5]];portConstraint=eastwest;rotatable=0;whiteSpace=wrap;html=1;fontColor=#46495D;rounded=0;" vertex="1" parent="YTw8jPQVbYaC02VJ7nYZ-72">
          <mxGeometry y="60" width="270" height="30" as="geometry" />
        </mxCell>
        <mxCell id="YTw8jPQVbYaC02VJ7nYZ-75" value="server_name &lt;span class=&quot;hljs-type&quot;&gt;VARCHAR&lt;/span&gt;(&lt;span class=&quot;hljs-number&quot;&gt;100&lt;/span&gt;) &lt;span class=&quot;hljs-keyword&quot;&gt;NOT&lt;/span&gt; &lt;span class=&quot;hljs-keyword&quot;&gt;NULL&lt;/span&gt;" style="text;strokeColor=none;fillColor=none;align=left;verticalAlign=middle;spacingLeft=4;spacingRight=4;overflow=hidden;points=[[0,0.5],[1,0.5]];portConstraint=eastwest;rotatable=0;whiteSpace=wrap;html=1;fontColor=#46495D;rounded=0;" vertex="1" parent="YTw8jPQVbYaC02VJ7nYZ-72">
          <mxGeometry y="90" width="270" height="30" as="geometry" />
        </mxCell>
        <mxCell id="YTw8jPQVbYaC02VJ7nYZ-76" value="" style="endArrow=classic;html=1;rounded=0;labelBackgroundColor=none;strokeColor=#788AA3;fontColor=default;entryX=0.471;entryY=0.006;entryDx=0;entryDy=0;entryPerimeter=0;" edge="1" parent="WIyWlLk6GJQsqaUBKTNV-1" target="YTw8jPQVbYaC02VJ7nYZ-72">
          <mxGeometry width="50" height="50" relative="1" as="geometry">
            <mxPoint x="1162" y="130" as="sourcePoint" />
            <mxPoint x="1162" y="250" as="targetPoint" />
            <Array as="points" />
          </mxGeometry>
        </mxCell>
        <mxCell id="YTw8jPQVbYaC02VJ7nYZ-148" value="1" style="edgeLabel;html=1;align=center;verticalAlign=middle;resizable=0;points=[];strokeColor=#788AA3;fontColor=#46495D;fillColor=#B2C9AB;rounded=0;" vertex="1" connectable="0" parent="YTw8jPQVbYaC02VJ7nYZ-76">
          <mxGeometry x="-0.5454" y="3" relative="1" as="geometry">
            <mxPoint x="7" y="-14" as="offset" />
          </mxGeometry>
        </mxCell>
        <mxCell id="YTw8jPQVbYaC02VJ7nYZ-149" value="1..n" style="edgeLabel;html=1;align=center;verticalAlign=middle;resizable=0;points=[];strokeColor=#788AA3;fontColor=#46495D;fillColor=#B2C9AB;rounded=0;" vertex="1" connectable="0" parent="YTw8jPQVbYaC02VJ7nYZ-76">
          <mxGeometry x="0.6127" y="-1" relative="1" as="geometry">
            <mxPoint x="16" as="offset" />
          </mxGeometry>
        </mxCell>
        <mxCell id="YTw8jPQVbYaC02VJ7nYZ-80" value="" style="endArrow=classic;html=1;rounded=0;strokeColor=#788AA3;fontColor=#46495D;fillColor=#B2C9AB;exitX=1.002;exitY=0.808;exitDx=0;exitDy=0;exitPerimeter=0;" edge="1" parent="WIyWlLk6GJQsqaUBKTNV-1" source="zkfFHV4jXpPFQw0GAbJ--18" target="YTw8jPQVbYaC02VJ7nYZ-68">
          <mxGeometry width="50" height="50" relative="1" as="geometry">
            <mxPoint x="950" y="170" as="sourcePoint" />
            <mxPoint x="1000" y="120" as="targetPoint" />
            <Array as="points">
              <mxPoint x="900" y="87" />
            </Array>
          </mxGeometry>
        </mxCell>
        <mxCell id="YTw8jPQVbYaC02VJ7nYZ-146" value="1" style="edgeLabel;html=1;align=center;verticalAlign=middle;resizable=0;points=[];strokeColor=#788AA3;fontColor=#46495D;fillColor=#B2C9AB;rounded=0;" vertex="1" connectable="0" parent="YTw8jPQVbYaC02VJ7nYZ-80">
          <mxGeometry x="-0.7617" y="2" relative="1" as="geometry">
            <mxPoint y="-15" as="offset" />
          </mxGeometry>
        </mxCell>
        <mxCell id="YTw8jPQVbYaC02VJ7nYZ-147" value="1" style="edgeLabel;html=1;align=center;verticalAlign=middle;resizable=0;points=[];strokeColor=#788AA3;fontColor=#46495D;fillColor=#B2C9AB;rounded=0;" vertex="1" connectable="0" parent="YTw8jPQVbYaC02VJ7nYZ-80">
          <mxGeometry x="0.6522" y="-2" relative="1" as="geometry">
            <mxPoint y="-18" as="offset" />
          </mxGeometry>
        </mxCell>
        <mxCell id="YTw8jPQVbYaC02VJ7nYZ-84" value="&lt;b&gt;&lt;i&gt;&lt;font style=&quot;font-size: 13px;&quot;&gt;Strategies&lt;/font&gt;&lt;/i&gt;&lt;/b&gt;" style="swimlane;fontStyle=0;childLayout=stackLayout;horizontal=1;startSize=30;horizontalStack=0;resizeParent=1;resizeParentMax=0;resizeLast=0;collapsible=1;marginBottom=0;whiteSpace=wrap;html=1;strokeColor=#788AA3;fontColor=#46495D;fillColor=#B2C9AB;rounded=0;" vertex="1" parent="WIyWlLk6GJQsqaUBKTNV-1">
          <mxGeometry x="40" y="720" width="320" height="180" as="geometry" />
        </mxCell>
        <mxCell id="YTw8jPQVbYaC02VJ7nYZ-85" value="id SERIAL &lt;span class=&quot;hljs-keyword&quot;&gt;PRIMARY&lt;/span&gt; KEY" style="text;strokeColor=none;fillColor=none;align=left;verticalAlign=middle;spacingLeft=4;spacingRight=4;overflow=hidden;points=[[0,0.5],[1,0.5]];portConstraint=eastwest;rotatable=0;whiteSpace=wrap;html=1;fontColor=#46495D;rounded=0;" vertex="1" parent="YTw8jPQVbYaC02VJ7nYZ-84">
          <mxGeometry y="30" width="320" height="30" as="geometry" />
        </mxCell>
        <mxCell id="YTw8jPQVbYaC02VJ7nYZ-86" value="name &lt;span class=&quot;hljs-type&quot;&gt;VARCHAR&lt;/span&gt;(&lt;span class=&quot;hljs-number&quot;&gt;100&lt;/span&gt;) &lt;span class=&quot;hljs-keyword&quot;&gt;NOT&lt;/span&gt; &lt;span class=&quot;hljs-keyword&quot;&gt;NULL&lt;/span&gt; &lt;span class=&quot;hljs-keyword&quot;&gt;UNIQUE&lt;/span&gt;" style="text;strokeColor=none;fillColor=none;align=left;verticalAlign=middle;spacingLeft=4;spacingRight=4;overflow=hidden;points=[[0,0.5],[1,0.5]];portConstraint=eastwest;rotatable=0;whiteSpace=wrap;html=1;fontColor=#46495D;rounded=0;" vertex="1" parent="YTw8jPQVbYaC02VJ7nYZ-84">
          <mxGeometry y="60" width="320" height="30" as="geometry" />
        </mxCell>
        <mxCell id="YTw8jPQVbYaC02VJ7nYZ-87" value="description TEXT" style="text;strokeColor=none;fillColor=none;align=left;verticalAlign=middle;spacingLeft=4;spacingRight=4;overflow=hidden;points=[[0,0.5],[1,0.5]];portConstraint=eastwest;rotatable=0;whiteSpace=wrap;html=1;fontColor=#46495D;rounded=0;" vertex="1" parent="YTw8jPQVbYaC02VJ7nYZ-84">
          <mxGeometry y="90" width="320" height="30" as="geometry" />
        </mxCell>
        <mxCell id="YTw8jPQVbYaC02VJ7nYZ-88" value="created_by &lt;span class=&quot;hljs-type&quot;&gt;INT&lt;/span&gt; &lt;span class=&quot;hljs-keyword&quot;&gt;REFERENCES&lt;/span&gt; Users(id) &lt;span class=&quot;hljs-keyword&quot;&gt;ON&lt;/span&gt; &lt;span class=&quot;hljs-keyword&quot;&gt;DELETE&lt;/span&gt; CASCADE" style="text;strokeColor=none;fillColor=none;align=left;verticalAlign=middle;spacingLeft=4;spacingRight=4;overflow=hidden;points=[[0,0.5],[1,0.5]];portConstraint=eastwest;rotatable=0;whiteSpace=wrap;html=1;fontColor=#46495D;rounded=0;" vertex="1" parent="YTw8jPQVbYaC02VJ7nYZ-84">
          <mxGeometry y="120" width="320" height="30" as="geometry" />
        </mxCell>
        <mxCell id="YTw8jPQVbYaC02VJ7nYZ-89" value="created_at &lt;span class=&quot;hljs-type&quot;&gt;TIMESTAMP&lt;/span&gt; &lt;span class=&quot;hljs-keyword&quot;&gt;DEFAULT&lt;/span&gt; NOW()" style="text;strokeColor=none;fillColor=none;align=left;verticalAlign=middle;spacingLeft=4;spacingRight=4;overflow=hidden;points=[[0,0.5],[1,0.5]];portConstraint=eastwest;rotatable=0;whiteSpace=wrap;html=1;fontColor=#46495D;rounded=0;" vertex="1" parent="YTw8jPQVbYaC02VJ7nYZ-84">
          <mxGeometry y="150" width="320" height="30" as="geometry" />
        </mxCell>
        <mxCell id="YTw8jPQVbYaC02VJ7nYZ-91" value="" style="endArrow=classic;html=1;rounded=0;strokeColor=#788AA3;fontColor=#46495D;fillColor=#B2C9AB;exitX=0.497;exitY=1.017;exitDx=0;exitDy=0;exitPerimeter=0;entryX=0.5;entryY=0;entryDx=0;entryDy=0;" edge="1" parent="WIyWlLk6GJQsqaUBKTNV-1" source="YTw8jPQVbYaC02VJ7nYZ-28" target="YTw8jPQVbYaC02VJ7nYZ-84">
          <mxGeometry width="50" height="50" relative="1" as="geometry">
            <mxPoint x="470" y="650" as="sourcePoint" />
            <mxPoint x="520" y="600" as="targetPoint" />
          </mxGeometry>
        </mxCell>
        <mxCell id="YTw8jPQVbYaC02VJ7nYZ-140" value="has" style="edgeLabel;html=1;align=center;verticalAlign=middle;resizable=0;points=[];strokeColor=#788AA3;fontColor=#46495D;fillColor=#B2C9AB;rounded=0;" vertex="1" connectable="0" parent="YTw8jPQVbYaC02VJ7nYZ-91">
          <mxGeometry x="-0.1271" y="-1" relative="1" as="geometry">
            <mxPoint x="12" as="offset" />
          </mxGeometry>
        </mxCell>
        <mxCell id="YTw8jPQVbYaC02VJ7nYZ-141" value="1" style="edgeLabel;html=1;align=center;verticalAlign=middle;resizable=0;points=[];strokeColor=#788AA3;fontColor=#46495D;fillColor=#B2C9AB;rounded=0;" vertex="1" connectable="0" parent="YTw8jPQVbYaC02VJ7nYZ-91">
          <mxGeometry x="-0.147" y="6" relative="1" as="geometry">
            <mxPoint x="5" y="-32" as="offset" />
          </mxGeometry>
        </mxCell>
        <mxCell id="YTw8jPQVbYaC02VJ7nYZ-142" value="1" style="edgeLabel;html=1;align=center;verticalAlign=middle;resizable=0;points=[];strokeColor=#788AA3;fontColor=#46495D;fillColor=#B2C9AB;rounded=0;" vertex="1" connectable="0" parent="YTw8jPQVbYaC02VJ7nYZ-91">
          <mxGeometry x="0.6548" y="1" relative="1" as="geometry">
            <mxPoint x="9" as="offset" />
          </mxGeometry>
        </mxCell>
        <mxCell id="YTw8jPQVbYaC02VJ7nYZ-95" value="&lt;b&gt;&lt;i&gt;&lt;font style=&quot;font-size: 13px;&quot;&gt;Events&lt;/font&gt;&lt;/i&gt;&lt;/b&gt;" style="swimlane;fontStyle=0;childLayout=stackLayout;horizontal=1;startSize=30;horizontalStack=0;resizeParent=1;resizeParentMax=0;resizeLast=0;collapsible=1;marginBottom=0;whiteSpace=wrap;html=1;strokeColor=#788AA3;fontColor=#46495D;fillColor=#B2C9AB;rounded=0;" vertex="1" parent="WIyWlLk6GJQsqaUBKTNV-1">
          <mxGeometry x="-401" y="310" width="281" height="330" as="geometry" />
        </mxCell>
        <mxCell id="YTw8jPQVbYaC02VJ7nYZ-96" value="id SERIAL &lt;span class=&quot;hljs-keyword&quot;&gt;PRIMARY&lt;/span&gt; KEY" style="text;strokeColor=none;fillColor=none;align=left;verticalAlign=middle;spacingLeft=4;spacingRight=4;overflow=hidden;points=[[0,0.5],[1,0.5]];portConstraint=eastwest;rotatable=0;whiteSpace=wrap;html=1;fontColor=#46495D;rounded=0;" vertex="1" parent="YTw8jPQVbYaC02VJ7nYZ-95">
          <mxGeometry y="30" width="281" height="30" as="geometry" />
        </mxCell>
        <mxCell id="YTw8jPQVbYaC02VJ7nYZ-97" value="user_id &lt;span class=&quot;hljs-type&quot;&gt;INT&lt;/span&gt; &lt;span class=&quot;hljs-keyword&quot;&gt;REFERENCES&lt;/span&gt; Users(id) &lt;span class=&quot;hljs-keyword&quot;&gt;ON&lt;/span&gt; &lt;span class=&quot;hljs-keyword&quot;&gt;DELETE&lt;/span&gt; CASCADE" style="text;strokeColor=none;fillColor=none;align=left;verticalAlign=middle;spacingLeft=4;spacingRight=4;overflow=hidden;points=[[0,0.5],[1,0.5]];portConstraint=eastwest;rotatable=0;whiteSpace=wrap;html=1;fontColor=#46495D;rounded=0;" vertex="1" parent="YTw8jPQVbYaC02VJ7nYZ-95">
          <mxGeometry y="60" width="281" height="30" as="geometry" />
        </mxCell>
        <mxCell id="YTw8jPQVbYaC02VJ7nYZ-98" value="title &lt;span class=&quot;hljs-type&quot;&gt;VARCHAR&lt;/span&gt;(&lt;span class=&quot;hljs-number&quot;&gt;255&lt;/span&gt;) &lt;span class=&quot;hljs-keyword&quot;&gt;NOT&lt;/span&gt; &lt;span class=&quot;hljs-keyword&quot;&gt;NULL&lt;/span&gt;" style="text;strokeColor=none;fillColor=none;align=left;verticalAlign=middle;spacingLeft=4;spacingRight=4;overflow=hidden;points=[[0,0.5],[1,0.5]];portConstraint=eastwest;rotatable=0;whiteSpace=wrap;html=1;fontColor=#46495D;rounded=0;" vertex="1" parent="YTw8jPQVbYaC02VJ7nYZ-95">
          <mxGeometry y="90" width="281" height="30" as="geometry" />
        </mxCell>
        <mxCell id="YTw8jPQVbYaC02VJ7nYZ-100" value="description TEXT" style="text;strokeColor=none;fillColor=none;align=left;verticalAlign=middle;spacingLeft=4;spacingRight=4;overflow=hidden;points=[[0,0.5],[1,0.5]];portConstraint=eastwest;rotatable=0;whiteSpace=wrap;html=1;fontColor=#46495D;rounded=0;" vertex="1" parent="YTw8jPQVbYaC02VJ7nYZ-95">
          <mxGeometry y="120" width="281" height="30" as="geometry" />
        </mxCell>
        <mxCell id="YTw8jPQVbYaC02VJ7nYZ-102" value="category &lt;span class=&quot;hljs-type&quot;&gt;VARCHAR&lt;/span&gt;(&lt;span class=&quot;hljs-number&quot;&gt;50&lt;/span&gt;)" style="text;strokeColor=none;fillColor=none;align=left;verticalAlign=middle;spacingLeft=4;spacingRight=4;overflow=hidden;points=[[0,0.5],[1,0.5]];portConstraint=eastwest;rotatable=0;whiteSpace=wrap;html=1;fontColor=#46495D;rounded=0;" vertex="1" parent="YTw8jPQVbYaC02VJ7nYZ-95">
          <mxGeometry y="150" width="281" height="30" as="geometry" />
        </mxCell>
        <mxCell id="YTw8jPQVbYaC02VJ7nYZ-104" value="start_time &lt;span class=&quot;hljs-type&quot;&gt;TIMESTAMP&lt;/span&gt; &lt;span class=&quot;hljs-keyword&quot;&gt;NOT&lt;/span&gt; &lt;span class=&quot;hljs-keyword&quot;&gt;NULL&lt;/span&gt;" style="text;strokeColor=none;fillColor=none;align=left;verticalAlign=middle;spacingLeft=4;spacingRight=4;overflow=hidden;points=[[0,0.5],[1,0.5]];portConstraint=eastwest;rotatable=0;whiteSpace=wrap;html=1;fontColor=#46495D;rounded=0;" vertex="1" parent="YTw8jPQVbYaC02VJ7nYZ-95">
          <mxGeometry y="180" width="281" height="30" as="geometry" />
        </mxCell>
        <mxCell id="YTw8jPQVbYaC02VJ7nYZ-103" value="end_time &lt;span class=&quot;hljs-type&quot;&gt;TIMESTAMP&lt;/span&gt; &lt;span class=&quot;hljs-keyword&quot;&gt;NOT&lt;/span&gt; &lt;span class=&quot;hljs-keyword&quot;&gt;NULL&lt;/span&gt;" style="text;strokeColor=none;fillColor=none;align=left;verticalAlign=middle;spacingLeft=4;spacingRight=4;overflow=hidden;points=[[0,0.5],[1,0.5]];portConstraint=eastwest;rotatable=0;whiteSpace=wrap;html=1;fontColor=#46495D;rounded=0;" vertex="1" parent="YTw8jPQVbYaC02VJ7nYZ-95">
          <mxGeometry y="210" width="281" height="30" as="geometry" />
        </mxCell>
        <mxCell id="YTw8jPQVbYaC02VJ7nYZ-101" value="location &lt;span class=&quot;hljs-type&quot;&gt;VARCHAR&lt;/span&gt;(&lt;span class=&quot;hljs-number&quot;&gt;255&lt;/span&gt;)" style="text;strokeColor=none;fillColor=none;align=left;verticalAlign=middle;spacingLeft=4;spacingRight=4;overflow=hidden;points=[[0,0.5],[1,0.5]];portConstraint=eastwest;rotatable=0;whiteSpace=wrap;html=1;fontColor=#46495D;rounded=0;" vertex="1" parent="YTw8jPQVbYaC02VJ7nYZ-95">
          <mxGeometry y="240" width="281" height="30" as="geometry" />
        </mxCell>
        <mxCell id="YTw8jPQVbYaC02VJ7nYZ-105" value="reminder_time &lt;span class=&quot;hljs-type&quot;&gt;TIMESTAMP&lt;/span&gt;" style="text;strokeColor=none;fillColor=none;align=left;verticalAlign=middle;spacingLeft=4;spacingRight=4;overflow=hidden;points=[[0,0.5],[1,0.5]];portConstraint=eastwest;rotatable=0;whiteSpace=wrap;html=1;fontColor=#46495D;rounded=0;" vertex="1" parent="YTw8jPQVbYaC02VJ7nYZ-95">
          <mxGeometry y="270" width="281" height="30" as="geometry" />
        </mxCell>
        <mxCell id="YTw8jPQVbYaC02VJ7nYZ-99" value="created_at &lt;span class=&quot;hljs-type&quot;&gt;TIMESTAMP&lt;/span&gt; &lt;span class=&quot;hljs-keyword&quot;&gt;DEFAULT&lt;/span&gt; NOW()" style="text;strokeColor=none;fillColor=none;align=left;verticalAlign=middle;spacingLeft=4;spacingRight=4;overflow=hidden;points=[[0,0.5],[1,0.5]];portConstraint=eastwest;rotatable=0;whiteSpace=wrap;html=1;fontColor=#46495D;rounded=0;" vertex="1" parent="YTw8jPQVbYaC02VJ7nYZ-95">
          <mxGeometry y="300" width="281" height="30" as="geometry" />
        </mxCell>
        <mxCell id="YTw8jPQVbYaC02VJ7nYZ-107" value="" style="endArrow=classic;html=1;rounded=0;strokeColor=#788AA3;fontColor=#46495D;fillColor=#B2C9AB;exitX=0;exitY=0.5;exitDx=0;exitDy=0;entryX=1;entryY=0.5;entryDx=0;entryDy=0;" edge="1" parent="WIyWlLk6GJQsqaUBKTNV-1" source="YTw8jPQVbYaC02VJ7nYZ-6" target="YTw8jPQVbYaC02VJ7nYZ-104">
          <mxGeometry width="50" height="50" relative="1" as="geometry">
            <mxPoint x="10" y="460" as="sourcePoint" />
            <mxPoint x="60" y="410" as="targetPoint" />
            <Array as="points">
              <mxPoint x="-40" y="167" />
              <mxPoint x="-40" y="505" />
            </Array>
          </mxGeometry>
        </mxCell>
        <mxCell id="YTw8jPQVbYaC02VJ7nYZ-134" value="has" style="edgeLabel;html=1;align=center;verticalAlign=middle;resizable=0;points=[];strokeColor=#788AA3;fontColor=#46495D;fillColor=#B2C9AB;rounded=0;" vertex="1" connectable="0" parent="YTw8jPQVbYaC02VJ7nYZ-107">
          <mxGeometry x="-0.339" y="2" relative="1" as="geometry">
            <mxPoint x="18" y="68" as="offset" />
          </mxGeometry>
        </mxCell>
        <mxCell id="YTw8jPQVbYaC02VJ7nYZ-135" value="1" style="edgeLabel;html=1;align=center;verticalAlign=middle;resizable=0;points=[];strokeColor=#788AA3;fontColor=#46495D;fillColor=#B2C9AB;rounded=0;" vertex="1" connectable="0" parent="YTw8jPQVbYaC02VJ7nYZ-107">
          <mxGeometry x="-0.8549" y="-2" relative="1" as="geometry">
            <mxPoint x="-3" y="15" as="offset" />
          </mxGeometry>
        </mxCell>
        <mxCell id="YTw8jPQVbYaC02VJ7nYZ-136" value="0..n" style="edgeLabel;html=1;align=center;verticalAlign=middle;resizable=0;points=[];strokeColor=#788AA3;fontColor=#46495D;fillColor=#B2C9AB;rounded=0;" vertex="1" connectable="0" parent="YTw8jPQVbYaC02VJ7nYZ-107">
          <mxGeometry x="0.7891" relative="1" as="geometry">
            <mxPoint x="-13" y="-15" as="offset" />
          </mxGeometry>
        </mxCell>
        <mxCell id="YTw8jPQVbYaC02VJ7nYZ-108" value="&lt;b&gt;&lt;i&gt;&lt;font style=&quot;font-size: 13px;&quot;&gt;Notifications&lt;/font&gt;&lt;/i&gt;&lt;/b&gt;" style="swimlane;fontStyle=0;childLayout=stackLayout;horizontal=1;startSize=30;horizontalStack=0;resizeParent=1;resizeParentMax=0;resizeLast=0;collapsible=1;marginBottom=0;whiteSpace=wrap;html=1;strokeColor=#788AA3;fontColor=#46495D;fillColor=#B2C9AB;rounded=0;" vertex="1" parent="WIyWlLk6GJQsqaUBKTNV-1">
          <mxGeometry x="-401" y="40" width="281" height="210" as="geometry" />
        </mxCell>
        <mxCell id="YTw8jPQVbYaC02VJ7nYZ-109" value="id SERIAL &lt;span class=&quot;hljs-keyword&quot;&gt;PRIMARY&lt;/span&gt; KEY" style="text;strokeColor=none;fillColor=none;align=left;verticalAlign=middle;spacingLeft=4;spacingRight=4;overflow=hidden;points=[[0,0.5],[1,0.5]];portConstraint=eastwest;rotatable=0;whiteSpace=wrap;html=1;fontColor=#46495D;rounded=0;" vertex="1" parent="YTw8jPQVbYaC02VJ7nYZ-108">
          <mxGeometry y="30" width="281" height="30" as="geometry" />
        </mxCell>
        <mxCell id="YTw8jPQVbYaC02VJ7nYZ-110" value="user_id &lt;span class=&quot;hljs-type&quot;&gt;INT&lt;/span&gt; &lt;span class=&quot;hljs-keyword&quot;&gt;REFERENCES&lt;/span&gt; Users(id) &lt;span class=&quot;hljs-keyword&quot;&gt;ON&lt;/span&gt; &lt;span class=&quot;hljs-keyword&quot;&gt;DELETE&lt;/span&gt; CASCADE" style="text;strokeColor=none;fillColor=none;align=left;verticalAlign=middle;spacingLeft=4;spacingRight=4;overflow=hidden;points=[[0,0.5],[1,0.5]];portConstraint=eastwest;rotatable=0;whiteSpace=wrap;html=1;fontColor=#46495D;rounded=0;" vertex="1" parent="YTw8jPQVbYaC02VJ7nYZ-108">
          <mxGeometry y="60" width="281" height="30" as="geometry" />
        </mxCell>
        <mxCell id="YTw8jPQVbYaC02VJ7nYZ-111" value="notification_type &lt;span class=&quot;hljs-type&quot;&gt;VARCHAR&lt;/span&gt;(&lt;span class=&quot;hljs-number&quot;&gt;50&lt;/span&gt;)" style="text;strokeColor=none;fillColor=none;align=left;verticalAlign=middle;spacingLeft=4;spacingRight=4;overflow=hidden;points=[[0,0.5],[1,0.5]];portConstraint=eastwest;rotatable=0;whiteSpace=wrap;html=1;fontColor=#46495D;rounded=0;" vertex="1" parent="YTw8jPQVbYaC02VJ7nYZ-108">
          <mxGeometry y="90" width="281" height="30" as="geometry" />
        </mxCell>
        <mxCell id="YTw8jPQVbYaC02VJ7nYZ-112" value="message TEXT &lt;span class=&quot;hljs-keyword&quot;&gt;NOT&lt;/span&gt; &lt;span class=&quot;hljs-keyword&quot;&gt;NULL&lt;/span&gt;" style="text;strokeColor=none;fillColor=none;align=left;verticalAlign=middle;spacingLeft=4;spacingRight=4;overflow=hidden;points=[[0,0.5],[1,0.5]];portConstraint=eastwest;rotatable=0;whiteSpace=wrap;html=1;fontColor=#46495D;rounded=0;" vertex="1" parent="YTw8jPQVbYaC02VJ7nYZ-108">
          <mxGeometry y="120" width="281" height="30" as="geometry" />
        </mxCell>
        <mxCell id="YTw8jPQVbYaC02VJ7nYZ-114" value="read_status &lt;span class=&quot;hljs-type&quot;&gt;BOOLEAN&lt;/span&gt; &lt;span class=&quot;hljs-keyword&quot;&gt;DEFAULT&lt;/span&gt; &lt;span class=&quot;hljs-literal&quot;&gt;FALSE&lt;/span&gt;" style="text;strokeColor=none;fillColor=none;align=left;verticalAlign=middle;spacingLeft=4;spacingRight=4;overflow=hidden;points=[[0,0.5],[1,0.5]];portConstraint=eastwest;rotatable=0;whiteSpace=wrap;html=1;fontColor=#46495D;rounded=0;" vertex="1" parent="YTw8jPQVbYaC02VJ7nYZ-108">
          <mxGeometry y="150" width="281" height="30" as="geometry" />
        </mxCell>
        <mxCell id="YTw8jPQVbYaC02VJ7nYZ-113" value="created_at &lt;span class=&quot;hljs-type&quot;&gt;TIMESTAMP&lt;/span&gt; &lt;span class=&quot;hljs-keyword&quot;&gt;DEFAULT&lt;/span&gt; NOW()" style="text;strokeColor=none;fillColor=none;align=left;verticalAlign=middle;spacingLeft=4;spacingRight=4;overflow=hidden;points=[[0,0.5],[1,0.5]];portConstraint=eastwest;rotatable=0;whiteSpace=wrap;html=1;fontColor=#46495D;rounded=0;" vertex="1" parent="YTw8jPQVbYaC02VJ7nYZ-108">
          <mxGeometry y="180" width="281" height="30" as="geometry" />
        </mxCell>
        <mxCell id="YTw8jPQVbYaC02VJ7nYZ-115" value="" style="endArrow=classic;html=1;rounded=0;strokeColor=#788AA3;fontColor=#46495D;fillColor=#B2C9AB;exitX=0;exitY=0.5;exitDx=0;exitDy=0;" edge="1" parent="WIyWlLk6GJQsqaUBKTNV-1" source="YTw8jPQVbYaC02VJ7nYZ-5" target="YTw8jPQVbYaC02VJ7nYZ-108">
          <mxGeometry width="50" height="50" relative="1" as="geometry">
            <mxPoint x="-100" y="310" as="sourcePoint" />
            <mxPoint x="-140" y="167" as="targetPoint" />
          </mxGeometry>
        </mxCell>
        <mxCell id="YTw8jPQVbYaC02VJ7nYZ-129" value="0..n" style="edgeLabel;html=1;align=center;verticalAlign=middle;resizable=0;points=[];strokeColor=#788AA3;fontColor=#46495D;fillColor=#B2C9AB;rounded=0;" vertex="1" connectable="0" parent="YTw8jPQVbYaC02VJ7nYZ-115">
          <mxGeometry x="0.6849" y="-2" relative="1" as="geometry">
            <mxPoint y="-13" as="offset" />
          </mxGeometry>
        </mxCell>
        <mxCell id="YTw8jPQVbYaC02VJ7nYZ-130" value="has" style="edgeLabel;html=1;align=center;verticalAlign=middle;resizable=0;points=[];strokeColor=#788AA3;fontColor=#46495D;fillColor=#B2C9AB;rounded=0;" vertex="1" connectable="0" parent="YTw8jPQVbYaC02VJ7nYZ-115">
          <mxGeometry x="-0.3082" y="3" relative="1" as="geometry">
            <mxPoint x="-24" y="-18" as="offset" />
          </mxGeometry>
        </mxCell>
        <mxCell id="YTw8jPQVbYaC02VJ7nYZ-131" value="1" style="edgeLabel;html=1;align=center;verticalAlign=middle;resizable=0;points=[];strokeColor=#788AA3;fontColor=#46495D;fillColor=#B2C9AB;rounded=0;" vertex="1" connectable="0" parent="YTw8jPQVbYaC02VJ7nYZ-115">
          <mxGeometry x="-0.52" y="-2" relative="1" as="geometry">
            <mxPoint x="29" y="-13" as="offset" />
          </mxGeometry>
        </mxCell>
        <mxCell id="YTw8jPQVbYaC02VJ7nYZ-116" value="&lt;b&gt;&lt;i&gt;&lt;font style=&quot;font-size: 13px;&quot;&gt;EconomicEvents&lt;/font&gt;&lt;/i&gt;&lt;/b&gt;" style="swimlane;fontStyle=0;childLayout=stackLayout;horizontal=1;startSize=30;horizontalStack=0;resizeParent=1;resizeParentMax=0;resizeLast=0;collapsible=1;marginBottom=0;whiteSpace=wrap;html=1;strokeColor=#788AA3;fontColor=#46495D;fillColor=#B2C9AB;rounded=0;" vertex="1" parent="WIyWlLk6GJQsqaUBKTNV-1">
          <mxGeometry x="-401" y="680" width="281" height="240" as="geometry" />
        </mxCell>
        <mxCell id="YTw8jPQVbYaC02VJ7nYZ-117" value="id SERIAL &lt;span class=&quot;hljs-keyword&quot;&gt;PRIMARY&lt;/span&gt; KEY" style="text;strokeColor=none;fillColor=none;align=left;verticalAlign=middle;spacingLeft=4;spacingRight=4;overflow=hidden;points=[[0,0.5],[1,0.5]];portConstraint=eastwest;rotatable=0;whiteSpace=wrap;html=1;fontColor=#46495D;rounded=0;" vertex="1" parent="YTw8jPQVbYaC02VJ7nYZ-116">
          <mxGeometry y="30" width="281" height="30" as="geometry" />
        </mxCell>
        <mxCell id="YTw8jPQVbYaC02VJ7nYZ-118" value="event_name &lt;span class=&quot;hljs-type&quot;&gt;VARCHAR&lt;/span&gt;(&lt;span class=&quot;hljs-number&quot;&gt;255&lt;/span&gt;) &lt;span class=&quot;hljs-keyword&quot;&gt;NOT&lt;/span&gt; &lt;span class=&quot;hljs-keyword&quot;&gt;NULL&lt;/span&gt;" style="text;strokeColor=none;fillColor=none;align=left;verticalAlign=middle;spacingLeft=4;spacingRight=4;overflow=hidden;points=[[0,0.5],[1,0.5]];portConstraint=eastwest;rotatable=0;whiteSpace=wrap;html=1;fontColor=#46495D;rounded=0;" vertex="1" parent="YTw8jPQVbYaC02VJ7nYZ-116">
          <mxGeometry y="60" width="281" height="30" as="geometry" />
        </mxCell>
        <mxCell id="YTw8jPQVbYaC02VJ7nYZ-120" value="event_date &lt;span class=&quot;hljs-type&quot;&gt;TIMESTAMP&lt;/span&gt; &lt;span class=&quot;hljs-keyword&quot;&gt;NOT&lt;/span&gt; &lt;span class=&quot;hljs-keyword&quot;&gt;NULL&lt;/span&gt;" style="text;strokeColor=none;fillColor=none;align=left;verticalAlign=middle;spacingLeft=4;spacingRight=4;overflow=hidden;points=[[0,0.5],[1,0.5]];portConstraint=eastwest;rotatable=0;whiteSpace=wrap;html=1;fontColor=#46495D;rounded=0;" vertex="1" parent="YTw8jPQVbYaC02VJ7nYZ-116">
          <mxGeometry y="90" width="281" height="30" as="geometry" />
        </mxCell>
        <mxCell id="YTw8jPQVbYaC02VJ7nYZ-123" value="country &lt;span class=&quot;hljs-type&quot;&gt;VARCHAR&lt;/span&gt;(&lt;span class=&quot;hljs-number&quot;&gt;100&lt;/span&gt;)" style="text;strokeColor=none;fillColor=none;align=left;verticalAlign=middle;spacingLeft=4;spacingRight=4;overflow=hidden;points=[[0,0.5],[1,0.5]];portConstraint=eastwest;rotatable=0;whiteSpace=wrap;html=1;fontColor=#46495D;rounded=0;" vertex="1" parent="YTw8jPQVbYaC02VJ7nYZ-116">
          <mxGeometry y="120" width="281" height="30" as="geometry" />
        </mxCell>
        <mxCell id="YTw8jPQVbYaC02VJ7nYZ-122" value="event_type &lt;span class=&quot;hljs-type&quot;&gt;VARCHAR&lt;/span&gt;(&lt;span class=&quot;hljs-number&quot;&gt;100&lt;/span&gt;)" style="text;strokeColor=none;fillColor=none;align=left;verticalAlign=middle;spacingLeft=4;spacingRight=4;overflow=hidden;points=[[0,0.5],[1,0.5]];portConstraint=eastwest;rotatable=0;whiteSpace=wrap;html=1;fontColor=#46495D;rounded=0;" vertex="1" parent="YTw8jPQVbYaC02VJ7nYZ-116">
          <mxGeometry y="150" width="281" height="30" as="geometry" />
        </mxCell>
        <mxCell id="YTw8jPQVbYaC02VJ7nYZ-119" value="importance &lt;span class=&quot;hljs-type&quot;&gt;VARCHAR&lt;/span&gt;(&lt;span class=&quot;hljs-number&quot;&gt;50&lt;/span&gt;)" style="text;strokeColor=none;fillColor=none;align=left;verticalAlign=middle;spacingLeft=4;spacingRight=4;overflow=hidden;points=[[0,0.5],[1,0.5]];portConstraint=eastwest;rotatable=0;whiteSpace=wrap;html=1;fontColor=#46495D;rounded=0;" vertex="1" parent="YTw8jPQVbYaC02VJ7nYZ-116">
          <mxGeometry y="180" width="281" height="30" as="geometry" />
        </mxCell>
        <mxCell id="YTw8jPQVbYaC02VJ7nYZ-121" value="created_at &lt;span class=&quot;hljs-type&quot;&gt;TIMESTAMP&lt;/span&gt; &lt;span class=&quot;hljs-keyword&quot;&gt;DEFAULT&lt;/span&gt; NOW()" style="text;strokeColor=none;fillColor=none;align=left;verticalAlign=middle;spacingLeft=4;spacingRight=4;overflow=hidden;points=[[0,0.5],[1,0.5]];portConstraint=eastwest;rotatable=0;whiteSpace=wrap;html=1;fontColor=#46495D;rounded=0;" vertex="1" parent="YTw8jPQVbYaC02VJ7nYZ-116">
          <mxGeometry y="210" width="281" height="30" as="geometry" />
        </mxCell>
      </root>
    </mxGraphModel>
  </diagram>
</mxfile>
